 <svg  version="1.0" xmlns="http://www.w3.org/2000/svg"  width="300.000000pt" height="241.000000pt" viewBox="0 0 300.000000 241.000000"  preserveAspectRatio="xMidYMid meet">  <g transform="translate(0.000000,241.000000) scale(0.100000,-0.100000)" fill="#0033ff" stroke="none"> <path d="M922 2288 l3 -71 -200 -79 c-110 -43 -208 -80 -217 -84 -16 -5 -18 2 -18 45 0 28 -4 51 -10 51 -6 0 -10 -26 -10 -58 l0 -57 -70 -24 c-38 -13 -70 -28 -70 -33 0 -13 24 -9 79 13 28 12 54 20 56 17 2 -2 6 -268 7 -590 l3 -586 -82 -1 -83 -1 0 104 c0 92 2 105 21 122 54 49 76 153 44 214 -21 40 -70 73 -99 66 -34 -8 -84 -69 -92 -112 -9 -49 9 -102 51 -151 l35 -41 0 -101 0 -101 -120 0 -120 0 0 -25 0 -25 1480 0 1480 0 0 25 0 25 -120 0 -120 0 0 104 c0 104 8 129 33 107 17 -13 83 67 99 120 15 52 -2 109 -43 143 -45 38 -55 32 -16 -9 19 -20 37 -48 40 -64 8 -38 -9 -99 -39 -138 -34 -45 -50 -41 -20 5 52 78 41 165 -29 218 -39 29 -49 30 -87 2 -41 -28 -72 -99 -62 -141 9 -44 37 -98 63 -121 19 -17 21 -30 21 -123 l0 -103 -94 0 -94 0 -4 293 c-4 275 -5 295 -26 349 -13 31 -34 73 -47 93 -21 30 -25 48 -25 110 0 41 2 75 5 75 3 0 47 -16 96 -35 97 -37 109 -40 109 -26 0 5 -47 26 -105 47 l-105 39 0 58 c0 31 2 57 4 57 2 0 46 -16 96 -35 98 -37 110 -40 110 -26 0 5 -47 26 -105 46 l-105 38 0 58 c0 33 -4 59 -10 59 -5 0 -10 -24 -10 -54 l0 -53 -192 71 c-189 71 -192 72 -192 101 -1 17 -5 30 -11 30 -5 0 -9 -11 -7 -24 3 -21 0 -23 -20 -17 -50 16 -68 18 -68 8 0 -6 19 -17 43 -24 l42 -15 3 -58 c3 -56 2 -57 -20 -51 -61 17 -68 18 -68 8 0 -9 22 -20 73 -36 16 -5 17 -27 17 -271 l0 -265 -79 0 c-44 0 -86 -3 -95 -6 -14 -5 -16 17 -16 211 l0 217 -37 -4 -38 -3 -3 60 -3 60 -87 0 -87 0 -5 -60 -5 -59 -48 3 -48 3 1 -329 1 -328 -36 0 -37 0 -1 372 -1 371 -23 5 -23 4 0 -533 0 -534 -30 0 -30 0 0 565 c0 558 0 565 -20 565 -20 0 -20 -7 -20 -565 l0 -565 -30 0 -30 0 0 598 c1 593 1 597 -20 600 -20 3 -20 1 -20 -597 l0 -601 -30 0 -30 0 0 636 c0 634 0 635 -20 632 -21 -3 -21 -7 -20 -635 l0 -633 -42 0 -43 0 0 102 c0 57 3 105 6 108 3 3 3 34 -1 70 -4 36 -4 70 0 75 4 6 4 39 0 75 -4 37 -3 70 2 77 6 7 7 17 3 22 -10 18 -13 121 -3 121 5 0 7 9 3 19 -10 34 -13 131 -3 131 5 0 6 9 3 21 -10 29 -12 112 -4 124 3 6 3 39 -1 75 -5 37 -5 70 1 76 5 6 7 13 4 16 -10 9 -12 128 -3 128 5 0 6 10 3 21 -4 12 -8 42 -9 67 -1 43 1 46 33 57 19 6 37 17 39 25 5 13 -1 12 -59 -6 -13 -5 -14 4 -11 60 4 57 2 66 -13 66 -15 0 -16 -9 -13 -72z m3 -139 l-1 -41 -199 -79 c-110 -43 -208 -82 -217 -85 -15 -4 -18 1 -18 38 l0 44 143 53 c78 30 171 67 207 82 36 15 70 28 76 28 6 1 10 -17 9 -40z m0 -140 l-2 -51 -164 -63 c-90 -35 -181 -70 -201 -79 -21 -9 -40 -16 -43 -16 -3 0 -5 23 -3 51 l3 51 200 79 c110 43 203 78 206 79 3 0 5 -23 4 -51z m1285 -38 l185 -70 3 -59 3 -60 -190 71 -189 72 -4 58 c-1 31 -1 57 2 57 3 0 88 -31 190 -69z m-1285 -108 c-2 -27 -9 -51 -17 -55 -7 -4 -96 -40 -198 -80 -102 -40 -188 -74 -192 -76 -5 -2 -8 20 -8 50 l0 54 93 34 c50 19 139 53 197 77 58 23 110 42 116 43 8 0 11 -17 9 -47z m1278 -28 c95 -36 178 -68 185 -70 8 -3 12 -27 12 -71 l0 -67 -44 41 c-72 67 -174 111 -280 121 l-58 6 -2 53 c0 28 3 52 7 52 5 0 86 -29 180 -65z m-513 -6 c0 -33 -3 -40 -16 -35 -9 3 -31 6 -50 6 -32 0 -34 2 -34 35 l0 35 50 0 50 0 0 -41z m-765 -116 l-1 -48 -195 -77 c-107 -42 -200 -77 -206 -77 -9 -1 -13 15 -13 48 l0 48 188 73 c103 39 194 76 202 80 22 13 26 6 25 -47z m845 -162 l0 -210 -52 -25 c-29 -13 -71 -35 -93 -48 -38 -23 -39 -24 -36 -75 l2 -52 -45 1 -46 1 0 308 0 309 135 0 135 0 0 -209z m380 177 c67 -20 150 -71 200 -124 l50 -53 0 -360 0 -360 -80 0 -81 0 3 274 3 275 -97 0 -98 0 0 185 0 185 33 -6 c17 -3 48 -10 67 -16z m-1224 -158 l-1 -50 -201 -80 c-110 -44 -204 -80 -208 -80 -4 0 -6 23 -4 51 l3 51 170 64 c94 36 184 71 200 79 42 19 42 20 41 -35z m1530 -154 c10 -37 14 -125 14 -318 l0 -268 -25 0 -25 0 0 338 c1 347 4 369 36 248z m-1530 4 l-1 -50 -70 -27 c-58 -22 -117 -44 -332 -130 -10 -4 -13 10 -13 48 l0 54 158 59 c86 32 175 67 197 77 59 26 62 24 61 -31z m1274 -335 l0 -255 -210 1 -211 1 3 155 3 156 -83 -2 -83 -2 3 41 3 41 110 59 110 58 178 1 177 1 0 -255z m-1275 188 l-2 -47 -59 -24 c-32 -13 -125 -50 -206 -82 l-148 -58 0 52 0 53 178 68 c97 37 188 73 202 80 14 7 28 11 31 9 4 -2 6 -25 4 -51z m-591 -17 c25 -38 20 -95 -11 -144 -15 -23 -31 -42 -35 -42 -4 0 -19 20 -33 43 -34 59 -34 115 1 156 29 35 48 31 78 -13z m2440 2 c24 -34 20 -95 -9 -145 -14 -23 -30 -43 -35 -43 -5 0 -21 20 -35 43 -34 59 -34 115 1 156 28 34 49 31 78 -11z m-1849 -130 l-2 -53 -189 -73 c-104 -41 -197 -76 -207 -79 -16 -5 -18 0 -15 46 l3 53 90 34 c50 19 128 49 175 66 46 17 96 37 110 45 14 7 28 13 31 13 3 0 5 -24 4 -52z m823 -163 l3 -135 -103 0 -103 0 3 116 c3 75 0 120 -7 127 -8 8 -11 -24 -11 -116 l0 -127 -78 0 -77 0 1 138 c1 75 2 137 3 137 1 0 83 -1 183 -2 l183 -2 3 -136z m-823 -34 l0 -100 -207 -1 -208 0 0 22 c0 19 11 27 73 49 104 38 267 100 302 115 17 8 32 14 35 14 3 0 5 -45 5 -99z"/> <path d="M1600 1656 c-48 -8 -66 -15 -68 -28 -3 -16 -1 -17 25 -3 15 8 57 21 93 29 78 16 42 19 -50 2z"/> <path d="M1534 1370 c-1 -113 2 -176 5 -140 3 36 4 128 0 205 -5 131 -5 127 -5 -65z"/> <path d="M2318 1513 c-10 -113 -9 -651 1 -657 5 -4 13 3 16 14 6 20 -3 691 -9 698 -2 1 -6 -23 -8 -55z"/> <path d="M1880 1260 c0 -19 7 -20 144 -20 135 0 144 1 149 20 5 19 0 20 -144 20 -142 0 -149 -1 -149 -20z"/> <path d="M1880 1190 c0 -19 7 -20 149 -20 144 0 149 1 144 20 -5 19 -14 20 -149 20 -137 0 -144 -1 -144 -20z"/> <path d="M1880 1120 c0 -19 7 -20 145 -20 138 0 145 1 145 20 0 19 -7 20 -145 20 -138 0 -145 -1 -145 -20z"/> <path d="M1880 1050 c0 -19 7 -20 129 -20 71 0 136 -3 145 -6 12 -5 16 0 16 20 l0 26 -145 0 c-138 0 -145 -1 -145 -20z"/> <path d="M1880 981 c0 -19 9 -20 145 -23 145 -3 145 -3 145 20 0 22 -1 22 -145 22 -137 0 -145 -1 -145 -19z"/> <path d="M1880 905 l0 -25 145 0 145 0 0 25 0 25 -145 0 -145 0 0 -25z"/> <path d="M260 1199 c0 -19 6 -43 13 -53 11 -15 12 -11 9 26 -5 54 -22 75 -22 27z"/> <path d="M2705 1221 c-8 -25 2 -78 16 -87 6 -4 7 14 3 48 -8 62 -10 67 -19 39z"/> <path d="M857 968 c-15 -54 0 -146 17 -103 9 24 7 98 -3 113 -6 10 -10 8 -14 -10z"/> <path d="M1859 1706 c-9 -9 2 -296 12 -296 5 0 9 62 9 150 0 132 -4 162 -21 146z"/> <path d="M410 1488 c0 -100 3 -178 8 -174 4 4 7 86 7 182 0 96 -3 174 -7 174 -5 0 -8 -82 -8 -182z"/> <path d="M1949 1533 c0 -32 -2 -65 -4 -74 -1 -9 1 -23 6 -30 5 -9 9 19 9 74 0 48 -2 87 -5 87 -3 0 -5 -26 -6 -57z"/> <path d="M410 966 c0 -71 4 -116 10 -116 6 0 10 43 10 109 0 63 -4 112 -10 116 -6 4 -10 -35 -10 -109z"/> <path d="M200 477 c-118 -62 -121 -249 -5 -314 77 -43 210 -20 252 44 13 19 11 22 -22 43 l-36 22 -15 -20 c-23 -33 -76 -46 -117 -28 -37 15 -67 59 -67 96 0 29 27 77 49 90 11 5 38 10 61 10 34 0 48 -6 68 -28 l26 -29 33 20 c18 10 33 22 33 26 0 14 -65 70 -93 80 -48 18 -120 13 -167 -12z"/> <path d="M558 493 l-38 -4 0 -175 0 -174 40 0 40 0 0 180 c0 99 -1 179 -2 178 -2 -1 -20 -3 -40 -5z"/> <path d="M813 492 l-153 -3 0 -34 0 -35 60 0 60 0 0 -140 0 -140 41 0 41 0 -4 140 -3 140 63 0 62 0 0 34 c0 19 -3 36 -7 38 -5 2 -77 2 -160 0z m37 -38 c0 -14 -22 -44 -32 -44 -11 0 -37 29 -38 43 0 4 16 7 35 7 19 0 35 -3 35 -6z"/> <path d="M1020 496 c0 -5 108 -162 142 -206 15 -19 19 -38 17 -85 l-3 -60 40 0 39 0 0 65 0 65 78 107 c42 58 77 108 77 110 0 2 -21 3 -46 2 -46 -2 -47 -3 -90 -70 -24 -37 -44 -71 -44 -76 0 -23 -23 0 -65 67 -44 68 -51 75 -81 75 -18 0 -39 3 -48 6 -9 3 -16 4 -16 0z m227 -175 c2 -1 -5 -10 -15 -21 -16 -19 -18 -19 -29 -3 -7 9 -13 19 -13 23 0 4 45 5 57 1z"/> <path d="M1485 486 c-42 -18 -65 -47 -72 -89 -7 -48 25 -79 103 -102 94 -28 114 -37 114 -51 0 -35 -89 -38 -125 -4 -21 20 -27 21 -59 10 -42 -14 -43 -18 -14 -55 28 -36 76 -55 138 -55 85 0 140 42 140 106 0 50 -28 74 -121 104 -66 22 -84 32 -84 46 0 15 9 20 43 22 24 2 50 -2 57 -8 15 -12 71 -5 80 10 19 30 -61 80 -126 80 -24 -1 -57 -7 -74 -14z"/> <path d="M1710 494 c0 -4 8 -17 18 -28 11 -12 47 -62 81 -112 61 -89 63 -93 60 -150 l-3 -59 42 -3 42 -3 0 68 0 69 75 104 c77 108 86 127 59 116 -9 -3 -30 -6 -47 -6 -29 -1 -36 -8 -77 -75 -25 -41 -47 -74 -50 -75 -3 0 -27 34 -54 75 -40 62 -53 75 -75 75 -14 0 -36 3 -48 6 -13 4 -23 3 -23 -2z m212 -198 l-8 -28 -18 21 c-18 20 -18 21 5 30 30 11 30 11 21 -23z"/> <path d="M2422 383 c3 -112 -1 -131 -18 -93 -5 10 -42 60 -83 110 -73 88 -76 90 -118 90 l-43 0 0 -175 0 -175 40 0 39 0 3 111 3 111 90 -111 c89 -110 91 -111 129 -109 l38 3 0 174 0 173 -42 2 -42 2 4 -113z m-165 37 c39 -48 40 -61 4 -54 -23 5 -32 2 -37 -10 -12 -30 -24 -16 -24 28 0 81 15 90 57 36z m118 -137 c18 -24 48 -25 66 -1 l17 21 7 -22 c10 -32 -3 -91 -20 -91 -11 0 -33 24 -88 98 -5 6 -6 12 -2 12 4 0 13 -8 20 -17z"/> <path d="M2660 478 c-133 -68 -129 -266 7 -324 73 -32 177 -10 231 49 l23 24 -37 22 -36 22 -25 -25 c-33 -34 -74 -41 -116 -21 -61 29 -77 110 -31 164 22 27 32 31 74 31 38 0 53 -5 74 -27 l26 -26 35 19 c19 10 35 21 35 24 0 4 -12 18 -27 33 -63 59 -157 73 -233 35z"/> </g> </svg> 